<svg id="Capa_1" enable-background="new 0 0 512 512" height="512" viewBox="0 0 512 512" width="512" xmlns="http://www.w3.org/2000/svg"><g><path d="m302.667 170c18.472 0 33.5-15.028 33.5-33.5s-15.028-33.5-33.5-33.5-33.5 15.028-33.5 33.5 15.027 33.5 33.5 33.5zm0-52c10.201 0 18.5 8.299 18.5 18.5s-8.299 18.5-18.5 18.5-18.5-8.299-18.5-18.5 8.299-18.5 18.5-18.5zm-152.667 97h-53c-7.995 0-14.5 6.505-14.5 14.5v53c0 7.995 6.505 14.5 14.5 14.5h53c7.995 0 14.5-6.505 14.5-14.5v-53c0-7.995-6.505-14.5-14.5-14.5zm-.5 67h-52v-52h52zm52.5 8h160c4.142 0 7.5-3.358 7.5-7.5s-3.358-7.5-7.5-7.5h-160c-4.142 0-7.5 3.358-7.5 7.5s3.358 7.5 7.5 7.5zm0-60h220c4.142 0 7.5-3.358 7.5-7.5s-3.358-7.5-7.5-7.5h-220c-4.142 0-7.5 3.358-7.5 7.5s3.358 7.5 7.5 7.5zm0 30h220c4.142 0 7.5-3.358 7.5-7.5s-3.358-7.5-7.5-7.5h-220c-4.142 0-7.5 3.358-7.5 7.5s3.358 7.5 7.5 7.5zm0 67h220c4.142 0 7.5-3.358 7.5-7.5s-3.358-7.5-7.5-7.5h-220c-4.142 0-7.5 3.358-7.5 7.5s3.358 7.5 7.5 7.5zm194-157c18.472 0 33.5-15.028 33.5-33.5s-15.028-33.5-33.5-33.5-33.5 15.028-33.5 33.5 15.028 33.5 33.5 33.5zm0-52c10.201 0 18.5 8.299 18.5 18.5s-8.299 18.5-18.5 18.5-18.5-8.299-18.5-18.5 8.299-18.5 18.5-18.5zm-186.667 52c18.472 0 33.5-15.028 33.5-33.5s-15.028-33.5-33.5-33.5-33.5 15.028-33.5 33.5 15.028 33.5 33.5 33.5zm0-52c10.201 0 18.5 8.299 18.5 18.5s-8.299 18.5-18.5 18.5-18.5-8.299-18.5-18.5 8.3-18.5 18.5-18.5zm-93.333 52c18.472 0 33.5-15.028 33.5-33.5s-15.028-33.5-33.5-33.5-33.5 15.028-33.5 33.5 15.028 33.5 33.5 33.5zm0-52c10.201 0 18.5 8.299 18.5 18.5s-8.299 18.5-18.5 18.5-18.5-8.299-18.5-18.5 8.299-18.5 18.5-18.5zm313.5 231.5c0-4.142-3.358-7.5-7.5-7.5h-220c-4.142 0-7.5 3.358-7.5 7.5s3.358 7.5 7.5 7.5h220c4.142 0 7.5-3.358 7.5-7.5zm65 29.5h-5v-298.5c0-20.678-16.822-37.5-37.5-37.5h-392c-20.678 0-37.5 16.822-37.5 37.5v298.5h-5c-9.649 0-17.5 7.851-17.5 17.5v35c0 20.678 16.822 37.5 37.5 37.5h437c20.678 0 37.5-16.822 37.5-37.5v-35c0-9.649-7.851-17.5-17.5-17.5zm2.5 52.5c0 12.407-10.093 22.5-22.5 22.5h-437c-12.407 0-22.5-10.093-22.5-22.5v-35c0-1.378 1.122-2.5 2.5-2.5h184.507c1.378 0 2.5 1.122 2.5 2.5v13.579c0 9.649 7.851 17.5 17.5 17.5h67.985c9.649 0 17.5-7.851 17.5-17.5v-13.579c0-1.378 1.122-2.5 2.5-2.5h72.732c4.142 0 7.5-3.358 7.5-7.5s-3.358-7.5-7.5-7.5h-72.732c-9.649 0-17.5 7.851-17.5 17.5v13.579c0 1.378-1.122 2.5-2.5 2.5h-67.985c-1.378 0-2.5-1.122-2.5-2.5v-13.579c0-9.649-7.851-17.5-17.5-17.5h-37.507v-52.5c0-7.995-6.505-14.5-14.5-14.5h-53c-7.995 0-14.5 6.505-14.5 14.5v52.5h-15v-93c0-4.142-3.358-7.5-7.5-7.5s-7.5 3.358-7.5 7.5v93h-15v-298.5c0-12.407 10.093-22.5 22.5-22.5h392c12.407 0 22.5 10.093 22.5 22.5v298.5h-15v-291.5c0-7.995-6.505-14.5-14.5-14.5h-378c-7.995 0-14.5 6.505-14.5 14.5v163.5c0 4.142 3.358 7.5 7.5 7.5s7.5-3.358 7.5-7.5v-51h377v179h-26.775c-4.142 0-7.5 3.358-7.5 7.5s3.358 7.5 7.5 7.5h76.775c1.378 0 2.5 1.122 2.5 2.5zm-399.5-52.5v-52h52v52zm347-291v97h-377v-97z"/></g></svg>