<svg enable-background="new 0 0 110 110" height="512" viewBox="0 0 110 110" width="512" xmlns="http://www.w3.org/2000/svg"><path d="m41.709736 78.05542h26.563675v14.344384h-26.563675z" fill="#344d5b"/><path d="m70.8714676 89.7226868h-31.7430077c-1.6545372 0-2.9958153 1.3412704-2.9958153 2.9958191v2.3584213h37.7346649v-2.3584213c.0000001-1.6545487-1.341278-2.9958191-2.9958419-2.9958191z" fill="#3a556a"/><path d="m91.7093582 24.9908886h-73.4187374c-1.6777515 0-3.0288782 1.3511257-3.0288782 3.4616814v49.3358383h79.4764938v-49.3358383c-.0000009-2.1105557-1.3511209-3.4616814-3.0288782-3.4616814z" fill="#344d5b"/><path d="m19.831026 29.142807h70.337898v42.248291h-70.337898z" fill="#feda6f"/><path d="m15.261735 75.9619904v3.4879303c0 1.6777802 1.3511343 3.0290298 3.0289068 3.0290298h73.4187164c1.6777725 0 3.0289078-1.3512497 3.0289078-3.0290298v-3.4879303z" fill="#ededed"/><path d="m54.9999924 76.4098969c-.9088364 0-1.6456299.7366867-1.6456299 1.6455231 0 .908783.7367935 1.6455231 1.6456299 1.6455231.9087257 0 1.6455193-.7367401 1.6455193-1.6455231-.0000001-.9088364-.7367936-1.6455231-1.6455193-1.6455231z" fill="#ebf0f3"/><path d="m63.5159492 37.4308052h-33.4120883c-1.0815525 0-1.9583263.8767395-1.9583263 1.9582939v13.2273254c0 1.3926048 1.0181293 2.6361465 2.404438 2.7683754 1.590313.1516228 2.9282494-1.0947456 2.9282494-2.6537857v-.6336861c0-1.3926048 1.0181274-2.6362839 2.4044724-2.7683792 1.5902786-.1516228 2.928215 1.094883 2.928215 2.6537857v5.1768227c0 1.3926048 1.0180931 2.6361465 2.4043694 2.7683792 1.590313.1516228 2.9282837-1.0947456 2.9282837-2.6537857v-.5069771c0-1.3926048 1.0181274-2.6362839 2.4044724-2.7683792 1.5902786-.1516228 2.928215 1.094883 2.928215 2.6537857v3.6696281c0 1.3926048 1.0180931 2.6361465 2.4043694 2.7683792 1.590313.151619 2.9282837-1.0947495 2.9282837-2.6537895v-3.6696243c0-1.3926048 1.0181274-2.6362839 2.4044724-2.7683792 1.5902786-.1516228 2.9282112 1.094883 2.9282112 2.6537857v.5069771c0 1.3926048 1.0181313 2.6361465 2.4044418 2.7683792 1.5903091.1516228 2.9282455-1.094883 2.9282455-2.6537857v-17.8850517c-.0000002-1.0815544-.8767702-1.9582939-1.9583247-1.9582939z" fill="#44c4a1"/><ellipse cx="71.507" cy="30.745" fill="#cd5248" rx="21.873" ry="4.696" transform="matrix(.707 -.707 .707 .707 -.796 59.568)"/><path d="m50.3250732 51.927002c4.2054863-2.7361908 7.6253281-.4765587 10.0785217-2.9297523 2.4531021-2.4531021 2.8414879-6.0421028.8674088-8.0161819-1.9740753-1.9740753-5.563076-1.5856895-8.0161781.8674126-2.4531937 2.4531935-5.8043633 11.9488104-2.9297524 10.0785216z" fill="#344d5b"/><path d="m57.134468 40.343548h7.240044v2.343917h-7.240044z" fill="#ededed" transform="matrix(-.707 -.707 .707 -.707 74.359 113.831)"/></svg>